<?xml version="1.0" ?>
<!-- Uploaded to: SVG Repo, www.svgrepo.com, Generator: SVG Repo Mixer Tools -->
<svg width="800px" height="800px" viewBox="0 0 300 300" id="Layer_1" version="1.1" xml:space="preserve" xmlns="http://www.w3.org/2000/svg" xmlns:xlink="http://www.w3.org/1999/xlink">
<style type="text/css">
	.st0{fill:#E0D671;}
	.st1{fill:none;stroke:#2D3642;stroke-width:20;stroke-linecap:round;stroke-linejoin:round;}
	.st2{fill:#168C84;}
</style>
<title/>
<g>
<g id="Layer_1-2">
<polygon class="st0" points="210,10 90,120 210,120   "/>
<path class="st1" d="M104.7,10h90.5c8.1,0,14.7,6.6,14.7,14.7c0,0,0,0,0,0V250l0,0H90l0,0V24.7C90,16.6,96.6,10,104.7,10L104.7,10    z"/>
<line class="st1" x1="90" x2="200" y1="120" y2="120"/>
<path class="st2" d="M120,150L120,150c5.5,0,10,4.5,10,10l0,0c0,5.5-4.5,10-10,10l0,0c-5.5,0-10-4.5-10-10l0,0    C110,154.5,114.5,150,120,150z"/>
<path class="st2" d="M150,150L150,150c5.5,0,10,4.5,10,10l0,0c0,5.5-4.5,10-10,10l0,0c-5.5,0-10-4.5-10-10l0,0    C140,154.5,144.5,150,150,150z"/>
<path class="st2" d="M180,150L180,150c5.5,0,10,4.5,10,10l0,0c0,5.5-4.5,10-10,10l0,0c-5.5,0-10-4.5-10-10l0,0    C170,154.5,174.5,150,180,150z"/>
<path class="st2" d="M120,180L120,180c5.5,0,10,4.5,10,10l0,0c0,5.5-4.5,10-10,10l0,0c-5.5,0-10-4.5-10-10l0,0    C110,184.5,114.5,180,120,180z"/>
<path class="st2" d="M150,180L150,180c5.5,0,10,4.5,10,10l0,0c0,5.5-4.5,10-10,10l0,0c-5.5,0-10-4.5-10-10l0,0    C140,184.5,144.5,180,150,180z"/>
<path class="st2" d="M180,180L180,180c5.5,0,10,4.5,10,10l0,0c0,5.5-4.5,10-10,10l0,0c-5.5,0-10-4.5-10-10l0,0    C170,184.5,174.5,180,180,180z"/>
<path class="st2" d="M120,210L120,210c5.5,0,10,4.5,10,10l0,0c0,5.5-4.5,10-10,10l0,0c-5.5,0-10-4.5-10-10l0,0    C110,214.5,114.5,210,120,210z"/>
<path class="st2" d="M150,210L150,210c5.5,0,10,4.5,10,10l0,0c0,5.5-4.5,10-10,10l0,0c-5.5,0-10-4.5-10-10l0,0    C140,214.5,144.5,210,150,210z"/>
<path class="st2" d="M180,210L180,210c5.5,0,10,4.5,10,10l0,0c0,5.5-4.5,10-10,10l0,0c-5.5,0-10-4.5-10-10l0,0    C170,214.5,174.5,210,180,210z"/>
<path class="st1" d="M229.7,290H70.3c-4.1,0-7.4-3.3-7.4-7.4c0-0.8,0.1-1.6,0.4-2.3l5.1-15.2c1-3,3.8-5.1,7-5.1h149.3    c3.2,0,6,2.1,7,5.1l5.1,15.2c1.3,3.9-0.8,8.1-4.7,9.4C231.3,289.9,230.5,290,229.7,290z"/>
</g>
</g>
</svg>